<?xml version="1.0" encoding="utf-8"?><svg xmlns="http://www.w3.org/2000/svg" xmlns:xlink="http://www.w3.org/1999/xlink" version="1.1" class="page" pageAlignment="none" x="0px" y="0px" width="842px" height="595px" viewBox="0 0 842 595" enable-background="new 0 0 842 595" xml:space="preserve"><defs/><style type="text/css"/><style type="text/css"/><g type="LAYER" name="workspace" id="workspace" locked="true"/><g type="LAYER" name="Layer 01" id="Layer 01"><path transform="matrix(1 0 0 1 144.59545454545457 84.38181818181818)" width="161.22336039155806" height="162.30517857337622" stroke-miterlimit="3" stroke="#000000" fill="#000000" d="M0,81.15258928668811 C0,36.333247743007426 36.09107452118925,0 80.61168019577903,0 C125.1322858703688,0 161.22336039155806,36.333247743007426 161.22336039155806,81.15258928668811 C161.22336039155806,125.97193083036879 125.1322858703688,162.30517857337622 80.61168019577903,162.30517857337622 C36.09107452118925,162.30517857337622 0,125.97193083036879 0,81.15258928668811 Z "/><path transform="matrix(1 0 0 1 356.63181818181897 85.46363636363637)" width="336.4454545454546" height="45.43636363636364" stroke-width="0.9165151389911681" stroke-miterlimit="3" stroke="#000000" fill="#000000" d="M0,0 L336.4454545454546,0 L336.4454545454546,45.43636363636364 L0,45.43636363636364 L0,0 Z "/><path transform="matrix(1 0 0 1 356.63181818181897 164.43636363636364)" width="335.3636363636364" height="24.881818181818204" stroke-width="1.0466166253332823" stroke-miterlimit="3" stroke="#000000" fill="#000000" d="M0,-2.842170943040401e-14 L335.3636363636364,-2.842170943040401e-14 L335.3636363636364,24.881818181818176 L0,24.881818181818176 L0,-2.842170943040401e-14 Z "/><path transform="matrix(1 0 0 1 356.0909090909104 221.23181818181868)" width="229.88636363636317" height="24.881818181818176" stroke-width="0.8665352804278349" stroke-miterlimit="3" stroke="#000000" fill="#000000" d="M0,0 L229.88636363636317,0 L229.88636363636317,24.881818181818176 L0,24.881818181818176 L0,0 Z "/><path transform="matrix(1 0 0 1 146.75909090909045 347.2474107133141)" width="161.22336039155806" height="162.30517857337622" stroke-miterlimit="3" stroke="#000000" fill="#000000" d="M0,81.15258928668811 C0,36.333247743007426 36.09107452118925,0 80.61168019577903,0 C125.1322858703688,0 161.22336039155806,36.333247743007426 161.22336039155806,81.15258928668811 C161.22336039155806,125.97193083036879 125.1322858703688,162.30517857337622 80.61168019577903,162.30517857337622 C36.09107452118925,162.30517857337622 0,125.97193083036879 0,81.15258928668811 Z "/><path transform="matrix(1 0 0 1 358.79545454545485 348.3292288951324)" width="336.4454545454546" height="45.43636363636364" stroke-width="0.9165151389911681" stroke-miterlimit="3" stroke="#000000" fill="#000000" d="M0,0 L336.4454545454546,0 L336.4454545454546,45.43636363636364 L0,45.43636363636364 L0,0 Z "/><path transform="matrix(1 0 0 1 358.79545454545485 427.301956167861)" width="335.3636363636364" height="24.881818181818204" stroke-width="1.0466166253332823" stroke-miterlimit="3" stroke="#000000" fill="#000000" d="M0,-2.842170943040401e-14 L335.3636363636364,-2.842170943040401e-14 L335.3636363636364,24.881818181818176 L0,24.881818181818176 L0,-2.842170943040401e-14 Z "/><path transform="matrix(1 0 0 1 358.25454545454625 484.0974107133167)" width="229.88636363636317" height="24.881818181818176" stroke-width="0.8665352804278349" stroke-miterlimit="3" stroke="#000000" fill="#000000" d="M0,0 L229.88636363636317,0 L229.88636363636317,24.881818181818176 L0,24.881818181818176 L0,0 Z "/></g></svg>